<svg xmlns="http://www.w3.org/2000/svg" width="1200" height="630" viewBox="0 0 1200 630" role="img" aria-label="Subnautica online browser game">
  <defs>
    <linearGradient id="bg" x1="0" y1="0" x2="1" y2="1">
      <stop offset="0" stop-color="#031422"/>
      <stop offset=".42" stop-color="#006f8f"/>
      <stop offset="1" stop-color="#00b8d9"/>
    </linearGradient>
    <radialGradient id="light" cx=".75" cy=".18" r=".58">
      <stop offset="0" stop-color="#bffbff" stop-opacity=".8"/>
      <stop offset=".42" stop-color="#29d4ef" stop-opacity=".24"/>
      <stop offset="1" stop-color="#00121e" stop-opacity="0"/>
    </radialGradient>
  </defs>
  <rect width="1200" height="630" fill="url(#bg)"/>
  <rect width="1200" height="630" fill="url(#light)"/>
  <path d="M0 520c120-46 216-44 330 0 114 44 207 44 330 0s226-46 360 2c70 25 128 30 180 18v90H0Z" fill="#031422" opacity=".62"/>
  <path d="M720 182c76-54 160-43 214 18 63 71 32 172-58 229-86 55-189 83-318 78 98-58 132-120 162-325Z" fill="#ffffff" opacity=".88"/>
  <circle cx="922" cy="154" r="34" fill="#ffd166"/>
  <text x="88" y="210" fill="#ffffff" font-family="Inter, Arial, sans-serif" font-size="86" font-weight="900">Subnautica</text>
  <text x="92" y="286" fill="#c8fbff" font-family="Inter, Arial, sans-serif" font-size="34" font-weight="700">Free underwater survival adventure online</text>
  <text x="94" y="358" fill="#ffffff" font-family="Inter, Arial, sans-serif" font-size="30">Dive, craft, build, and survive in your browser.</text>
</svg>
